<?xml version="1.0" encoding="iso-8859-1"?>
<!-- Generator: Adobe Illustrator 19.0.0, SVG Export Plug-In . SVG Version: 6.00 Build 0)  -->
<svg version="1.1" id="Capa_1" xmlns="http://www.w3.org/2000/svg" xmlns:xlink="http://www.w3.org/1999/xlink" x="0px" y="0px"
	 viewBox="0 0 512 512" style="enable-background:new 0 0 512 512; fill:#fff;" xml:space="preserve">
<g>
	<g>
		<path d="M416,206h-30v-76C386,58.317,327.683,0,256,0S126,58.317,126,130v76H96c-11.046,0-20,8.954-20,20v266
			c0,11.046,8.954,20,20,20h320c11.046,0,20-8.954,20-20V226C436,214.954,427.046,206,416,206z M166,130c0-49.626,40.374-90,90-90
			c49.626,0,90,40.374,90,90v76H166V130z M396,472H116V246c18.517,0,267.033,0,280,0V472z"/>
	</g>
</g>
<g>
	<g>
		<circle cx="256" cy="359" r="25"/>
	</g>
</g>
</svg>
